<svg width="45" height="31" viewBox="0 0 45 31" fill="none" xmlns="http://www.w3.org/2000/svg">
<path d="M24.5739 12.9778C24.5209 12.9253 24.4678 12.8728 24.4147 12.8202L24.3616 12.7677C23.7247 12.1897 22.8755 11.927 22.0263 11.927C21.2302 11.927 20.4341 12.1897 19.7971 12.7151L19.7441 12.7677C19.6379 12.8202 19.5848 12.8728 19.4787 12.9778C18.0987 14.344 18.0987 16.6033 19.4787 18.0219C19.5848 18.127 19.7441 18.2321 19.9033 18.3372C20.5402 18.8101 21.2833 19.0202 22.0263 19.0202C22.8225 19.0202 23.6186 18.7575 24.2555 18.2321L24.3086 18.1795C24.3616 18.127 24.4678 18.0745 24.5209 18.0219C25.0516 17.4965 25.4231 16.8134 25.5293 16.0253C25.5824 15.5524 25.5824 15.0795 25.4762 14.6067C25.317 13.9762 24.9985 13.3982 24.5739 12.9778Z" fill="black"/>
<path d="M37.6835 0.210074C37.3651 -0.105181 36.8343 -0.105181 36.569 0.210074C36.4097 0.367701 36.3567 0.57787 36.3567 0.78804C36.3567 0.998209 36.4628 1.20838 36.569 1.36601C40.3373 5.09651 42.4603 10.1406 42.4603 15.4999C42.4603 20.8592 40.3373 25.8508 36.5159 29.6338C36.3567 29.7914 36.3036 30.0016 36.3036 30.2118C36.3036 30.4219 36.4097 30.6321 36.5159 30.7897C36.6751 30.9474 36.8874 30.9999 37.0997 30.9999C37.312 30.9999 37.5243 30.8948 37.6835 30.7897C41.8234 26.6914 44.0526 21.2796 44.0526 15.5524C44.0526 9.82533 41.7704 4.30838 37.6835 0.210074Z" fill="black"/>
<path d="M33.2252 4.62365C32.9068 4.30839 32.376 4.30839 32.1107 4.62365C31.9514 4.78127 31.8984 4.99144 31.8984 5.20161C31.8984 5.41178 32.0045 5.62195 32.1107 5.77958C34.7644 8.4067 36.1975 11.8745 36.1975 15.5525C36.1975 19.2304 34.7644 22.6982 32.1107 25.3253C31.7922 25.6406 31.7922 26.1135 32.1107 26.4287C32.2699 26.5864 32.4822 26.6389 32.6945 26.6389C32.9068 26.6389 33.1191 26.5338 33.2783 26.4287C36.1975 23.5389 37.8428 19.6508 37.8428 15.5525C37.7897 11.4016 36.1975 7.51348 33.2252 4.62365Z" fill="black"/>
<path d="M26.8031 9.82544C26.6439 9.98307 26.5908 10.1932 26.5908 10.4034C26.5908 10.6136 26.697 10.8237 26.8031 10.9814C28.0239 12.1898 28.7138 13.8187 28.7138 15.5C28.7138 17.1814 28.0239 18.8102 26.8031 20.0187C26.6439 20.1763 26.5908 20.3865 26.5908 20.5966C26.5908 20.8068 26.697 21.017 26.8031 21.1746C26.9623 21.3322 27.1747 21.3848 27.387 21.3848C27.5993 21.3848 27.8116 21.2797 27.9708 21.1746C29.51 19.6509 30.3061 17.6543 30.3061 15.5526C30.3061 13.3983 29.4569 11.4017 27.9708 9.93052C27.6523 9.56273 27.1216 9.56273 26.8031 9.82544Z" fill="black"/>
<path d="M1.59226 15.5C1.59226 10.1406 3.71528 5.09657 7.53671 1.31352C7.69594 1.15589 7.74902 0.945719 7.74902 0.735549C7.74902 0.52538 7.64287 0.31521 7.53671 0.157583C7.21826 -0.157671 6.68751 -0.157671 6.42213 0.157583C2.28224 4.30843 0 9.72029 0 15.5C0 21.2796 2.28224 26.6915 6.36905 30.7372C6.52828 30.8949 6.74058 30.9474 6.95289 30.9474C7.16519 30.9474 7.37749 30.8423 7.53671 30.7372C7.69594 30.5796 7.74902 30.3694 7.74902 30.1593C7.74902 29.9491 7.64287 29.7389 7.53671 29.5813C3.71528 25.8508 1.59226 20.8067 1.59226 15.5Z" fill="black"/>
<path d="M11.942 5.72704C12.2604 5.41178 12.2604 4.9389 11.942 4.62365C11.6235 4.30839 11.0927 4.30839 10.8274 4.62365C7.90822 7.51348 6.26288 11.4016 6.26288 15.4999C6.26288 19.5982 7.85514 23.4864 10.8274 26.3762C10.9866 26.5338 11.1989 26.5864 11.4112 26.5864C11.6235 26.5864 11.8358 26.4813 11.995 26.3762C12.1543 26.2186 12.2073 26.0084 12.2073 25.7982C12.2073 25.5881 12.1012 25.3779 11.995 25.2203C6.52826 19.8609 6.52826 11.0864 11.942 5.72704Z" fill="black"/>
<path d="M17.2496 10.9814C17.568 10.6662 17.568 10.1933 17.2496 9.87804C16.9311 9.56279 16.4003 9.56279 16.135 9.87804C13.0035 12.978 13.0035 18.0221 16.135 21.1747C16.2942 21.3323 16.5065 21.3848 16.7188 21.3848C16.9311 21.3848 17.1434 21.2797 17.3026 21.1747C17.6211 20.8594 17.6211 20.3865 17.3026 20.0713C14.7019 17.4967 14.7019 13.4509 17.2496 10.9814Z" fill="black"/>
</svg>
